<?xml version="1.0" encoding="UTF-8"?>
<svg id="SVGRoot" width="900px" height="900px" version="1.1" viewBox="0 0 900 900" xml:space="preserve" xmlns="http://www.w3.org/2000/svg">

<style type="text/css">
polygon {
  fill: blue !important; 
  stroke: black !important;
  stroke-width: 2;
}
</style>

<g class="prefab">
  <!-- Polygon 0 -->
  <polygon fill="#FF6347" points="534.550,532.230 617.368,615.039 617.415,615.060 563.706,496.280 685.676,450.268 563.706,404.256 617.345,285.636 534.507,368.513 507.892,427.378 568.574,450.271 507.892,473.164 534.613,532.262"/>
  
  <polygon fill="#FF8C00" points="370.630,532.260 287.829,615.061 406.609,561.354 452.621,683.324 498.635,561.354 617.365,615.040 534.547,532.231 475.512,505.538 452.619,566.222 429.726,505.538"/>

  <polygon fill="#FF6347" points="370.630,368.280 397.353,427.378 336.669,450.271 397.353,473.164 370.630,532.262 452.620,450.272"/>

  <polygon fill="#FFD700" points="287.830,285.470 341.539,404.250 219.569,450.262 341.539,496.274 287.830,615.054 370.631,532.253 397.354,473.155 336.670,450.262 397.354,427.369 370.631,368.271"/>

  <polygon fill="#FFA500" points="287.830,285.470 370.631,368.271 429.729,394.994 452.622,334.310 475.515,394.994 534.613,368.271 534.508,368.503 617.346,285.626 617.416,285.470 498.636,339.177 452.622,217.207 406.610,339.177"/>

  <polygon fill="#FF4500" points="370.630,368.280 452.620,450.270 370.630,532.260 429.728,505.537 452.621,566.221 475.514,505.537 534.549,532.230 452.682,450.375 534.506,368.512 534.611,368.280 475.513,395.003 452.620,334.319 429.727,395.003" />

  <polygon fill="#FF7F50" points="604.180,173.840 577.136,166.082 555.414,183.962 554.435,155.845 530.718,140.711 557.157,131.092 564.221,103.859 581.540,126.031 609.623,124.333 593.888,147.656"/>

  <polygon fill="#FFD700" points="313.490,698.220 296.497,710.827 297.249,731.973 280.008,719.708 260.130,726.958 266.467,706.770 253.429,690.105 274.587,689.893 286.408,672.344 293.147,692.401"/>

  <polygon fill="#FF8C00" points="190.940,233.690 169.693,250.507 171.502,277.543 148.942,262.533 123.788,272.608 131.091,246.514 113.736,225.704 140.810,224.587 155.238,201.651 164.667,227.054"/>

  <polygon fill="#FF6347" points="534.550,532.230 534.612,532.259 507.891,473.161 568.573,450.268 507.891,427.375 534.506,368.510 452.682,450.373"/>

  <polygon fill="#FFA07A" points="452.6200,334.3100 475.5130,394.9930 534.6100,368.2710 507.8880,427.3680 568.5710,450.2610 507.8880,473.1540 534.6100,532.2510 475.5130,505.5290 452.6200,566.2120 429.7270,505.5290 370.6300,532.2510 397.3520,473.1540 336.6690,450.2610 397.3520,427.3680 370.6300,368.2710 429.7270,394.9930"/>

  <polygon fill="#FF8C00" points="190.9400,233.6900 169.6930,250.5070 171.5016,277.5430 148.9416,262.5330 123.7876,272.6080 131.0915,246.5140 113.7365,225.7040 140.8105,224.5870 155.2385,201.6510 164.6670,227.0540"/>

  <polygon fill="#FFD700" points="604.1800,173.8400 577.1360,166.0823 555.4140,183.9623 554.4351,155.8453 530.7181,140.7113 557.1571,131.0916 564.2210,103.8586 581.5400,126.0306 609.6230,124.3333 593.8880,147.6563"/>

  <polygon fill="#FF6347" points="313.4900,698.2200 296.4970,710.8270 297.2491,731.9730 280.0081,719.7080 260.1301,726.9577 266.4672,706.7697 253.4292,690.1047 274.5872,689.8933 286.4082,672.3443 293.1474,692.4013"/>

  <polygon fill="#FF8C00" points="601.3300,735.2700 564.0820,736.7694 544.2010,768.3034 531.2650,733.3414 495.1310,724.1777 524.3840,701.0707 521.9330,663.8727 552.9490,684.5537 587.5690,670.7277 577.4850,706.6157"/>

  <polygon fill="#FFA500" points="729.5700,313.4900 710.1300,308.3109 694.8430,321.3889 693.7614,301.2999 676.5994,290.8019 695.3704,283.5656 700.0510,263.9996 712.7340,279.6156 732.7880,278.0210 721.8550,294.9090"/>

  <polygon fill="#FF6347" points="162.4400,564.2800 143.8600,556.5662 126.9720,567.4992 128.5666,547.4452 112.9506,534.7622 132.5166,530.0816 139.7529,511.3106 150.2509,528.4726 170.3399,529.5542 157.2619,544.8412"/>

  <polygon fill="#FF7F50" points="151.0400,327.7400 136.6920,320.0482 122.2210,327.5074 125.1024,311.4844 113.5364,300.0274 129.6654,297.8164 136.9879,283.2764 144.0749,297.9334 160.1659,300.4044 148.4169,311.6734"/>

  <polygon fill="#FFA07A" points="735.2700,561.4300 710.7830,550.3000 687.7320,564.1620 690.7503,537.4340 670.4433,519.7950 696.7953,514.4062 707.2953,489.6432 720.5633,513.0402 747.3593,515.3743 729.2073,535.2233"/>

  <polygon fill="#FF8C00" points="327.7400,125.4000 315.8160,139.7260 320.8581,157.6700 303.5481,150.7572 288.0401,161.0972 289.2656,142.4982 274.6396,130.9452 292.7066,126.3634 299.1748,108.8824 309.1154,124.6494"/>
</g>

</svg>

